<?xml version="1.0" encoding="utf-8"?>
<!-- Generator: Adobe Illustrator 23.0.4, SVG Export Plug-In . SVG Version: 6.00 Build 0)  -->
<svg version="1.1" id="Layer_1" xmlns="http://www.w3.org/2000/svg" xmlns:xlink="http://www.w3.org/1999/xlink" x="0px" y="0px"
	 width="23.9px" height="25.2px" viewBox="0 0 23.9 25.2" style="enable-background:new 0 0 23.9 25.2;" xml:space="preserve">
<style type="text/css">
	.st0{fill:#ED174F;}
</style>
<g id="Group_89" transform="translate(-881 -821.846)">
	<path id="Path_36171" class="st0" d="M900.8,825.3l-0.2,2.1c-0.2,3.4-2.4,6.3-5.5,7.6c-0.2,0.1-0.5,0.1-0.7,0
		c-3.1-1.3-5.3-4.2-5.5-7.6l-0.2-2.1c0-0.4,0.2-0.8,0.5-0.9l5.1-2.4c0.3-0.1,0.6-0.1,0.8,0l5.1,2.4
		C900.7,824.5,900.9,824.9,900.8,825.3L900.8,825.3z M894.8,823.8l-4.1,1.9l0.1,1.4c0.2,2.5,1.7,4.7,4,5.8l0,0V823.8z"/>
	<g id="charity" transform="translate(881 815.816)">
		<g id="Group_94" transform="translate(0 20.082)">
			<g id="Group_93">
				<path id="Path_36166" class="st0" d="M23.6,0.8c-0.7-0.5-1.7-0.4-2.4,0.1c-0.8,0.4-5.3,4.3-5.3,4.3h-4.4c-0.2,0-0.4-0.2-0.4-0.4
					c0-0.2,0.2-0.4,0.4-0.4h2.7c1,0.1,1.9-0.7,2-1.7c-0.1-1-0.9-1.8-1.9-1.7c0,0-0.1,0-0.1,0c-1.6,0-2,0-2,0c-0.6,0-1.3-0.1-1.8-0.3
					C9.7,0.2,8.9,0,8.1,0C6.8,0,5.5,0.5,4.6,1.5L0,6l5.1,5.1l1.7-1.7h8.6c0.9,0,1.7-0.3,2.3-0.9l5.9-6.6C24,1.7,24,1.2,23.7,0.9
					C23.7,0.8,23.7,0.8,23.6,0.8z"/>
			</g>
		</g>
	</g>
</g>
</svg>
