<?xml version="1.0" encoding="utf-8"?>
<!-- Generator: Adobe Illustrator 23.0.4, SVG Export Plug-In . SVG Version: 6.00 Build 0)  -->
<svg version="1.1" id="Home" xmlns="http://www.w3.org/2000/svg" xmlns:xlink="http://www.w3.org/1999/xlink" x="0px" y="0px"
	 width="15.9px" height="15.9px" viewBox="0 0 15.9 15.9" style="enable-background:new 0 0 15.9 15.9;" xml:space="preserve">
<style type="text/css">
	.st0{fill:#D0103A;fill-opacity:0;}
	.st1{fill:#ED174F;}
</style>
<rect id="Canvas" class="st0" width="15.9" height="15.9"/>
<path id="Path_36119" class="st1" d="M15.5,8.2l-7-7c-0.3-0.3-0.7-0.3-0.9,0l-7.1,7c-0.3,0.3-0.3,0.7,0,0.9l0.7,0.7
	C1.3,9.9,1.4,10,1.6,10H2v4c0,0.4,0.3,0.7,0.7,0.7h3c0.2,0,0.3-0.1,0.3-0.3V9c0-0.2,0.2-0.3,0.3-0.3h3.3C9.8,8.6,10,8.8,10,9l0,5.3
	c0,0.2,0.1,0.3,0.3,0.3h3c0.4,0,0.7-0.3,0.7-0.7v-4h0.4c0.2,0,0.3-0.1,0.5-0.2l0.7-0.7C15.8,8.8,15.8,8.4,15.5,8.2L15.5,8.2z"/>
</svg>
