<?xml version="1.0" encoding="utf-8"?>
<!-- Generator: Adobe Illustrator 23.0.4, SVG Export Plug-In . SVG Version: 6.00 Build 0)  -->
<svg version="1.1" id="Layer_1" xmlns="http://www.w3.org/2000/svg" xmlns:xlink="http://www.w3.org/1999/xlink" x="0px" y="0px"
	 width="105px" height="40.3px" viewBox="0 0 105 40.3" style="enable-background:new 0 0 105 40.3;" xml:space="preserve">
<style type="text/css">
	.st0{fill:#FFFFFF;}
	.st1{fill:#ED174F;}
</style>
<g id="Group_78" transform="translate(-6522 802)">
	<g id="R2JtIx.tif" transform="translate(6522 -802)">
		<g id="Group_76" transform="translate(0 0)">
			<path id="Path_36173" class="st0" d="M0.9,0.1c2.5,0,5-0.1,7.5,0c3.8,0.3,6.2,2.7,6.6,6.5c0.2,1.6,0,3.2-0.6,4.7
				c-1,2.3-3.1,3.9-5.6,4.2c-0.9,0.1-1.8,0.2-2.8,0.2c-1.7,0-3.5,0-5.3,0L0.9,0.1z M3.9,13c1.5,0.1,3,0,4.5-0.2
				c1.7-0.3,3-1.6,3.3-3.3c0.2-0.8,0.2-1.7,0.1-2.6c0-1.8-1.2-3.4-2.9-4c-1.6-0.6-3.3-0.3-5-0.4L3.9,13z"/>
			<path id="Path_36174" class="st0" d="M39.8,24.6c0.8,0,1.6,0,2.4,0c0.1,0,0.2,0.2,0.3,0.3c0,0.3,0,0.7,0,1c0.8-1,2-1.5,3.3-1.5
				c1.3,0,2.5,0.5,3.2,1.5c0.1-0.1,0.3-0.2,0.4-0.3c1.6-1.3,3.7-1.6,5.6-0.8c1.3,0.6,2.1,2,2.1,3.4c0.1,2.4,0,4.9,0,7.3
				c0,0,0,0.1,0,0.1h-2.7v-0.6c0-1.9,0-3.9,0-5.8c0-0.3,0-0.7-0.1-1c-0.3-1.1-1.3-1.7-2.4-1.5c-0.3,0.1-0.5,0.2-0.7,0.3
				c-0.9,0.6-1.4,1.6-1.3,2.7c0,1.8,0,3.5,0,5.3v0.5h-2.8v-0.5c0-2,0-4,0-6c0-0.2,0-0.4,0-0.7c-0.1-1.1-1-1.9-2.1-1.8
				c-0.3,0-0.6,0.1-0.9,0.3c-0.9,0.5-1.5,1.4-1.4,2.5c0,1.9,0,3.8,0,5.6v0.5h-2.8L39.8,24.6z"/>
			<path id="Path_36175" class="st1" d="M10.6,22.1l-2.1,1.3c-0.2-0.3-0.4-0.5-0.6-0.7c-0.3-0.4-0.7-0.7-1.2-0.7
				c-0.6-0.1-1.3,0.1-1.7,0.6c-0.4,0.5-0.4,1.2-0.1,1.8c0.2,0.3,0.4,0.6,0.6,0.9c1.3,1.5,2.5,3.1,3.8,4.6C9.5,29.9,9.5,30,9.6,30
				l2-2.4l2,1.6c-0.2,0.2-0.4,0.5-0.5,0.7c-0.5,0.6-1,1.3-1.6,1.9c-0.2,0.2-0.2,0.4-0.1,0.6c0,0,0,0,0.1,0.1
				c0.8,0.9,1.5,1.8,2.2,2.7c0.1,0.1,0.2,0.3,0.4,0.5c-0.2,0-0.4,0-0.5,0c-0.8,0-1.7,0-2.5,0c-0.3,0-0.5-0.1-0.7-0.3
				c-0.3-0.4-0.6-0.7-0.9-1c-0.5,0.4-1,0.8-1.6,1.1c-1.9,1-4.1,0.9-5.9-0.1c-1.9-1.2-2.6-3.6-1.6-5.6c0.5-1,1.2-1.9,2.2-2.6
				c0.1-0.1,0.3-0.2,0.4-0.3c0,0,0-0.1,0.1-0.1c-0.2-0.3-0.4-0.6-0.6-0.9c-1.2-1.8-0.6-4.3,1.2-5.5c0.5-0.3,1.1-0.5,1.8-0.6
				c1.4-0.3,2.8,0.1,3.9,1C9.8,21.1,10.2,21.6,10.6,22.1z M7.8,32.1c-1-1.2-2-2.3-3-3.5c-0.1-0.1-0.2-0.1-0.3,0
				c-0.7,0.5-1.3,1.2-1.5,2c-0.3,1,0.1,2,0.9,2.5C5.3,33.8,6.9,33.3,7.8,32.1z"/>
			<path id="Path_36176" class="st0" d="M59.5,24.6h2.7c0,0.4,0.1,0.7,0.1,1.1c0.1,0,0.1,0,0.2-0.1c3.2-2.5,7.2-1.2,8.1,2.8
				c0.7,2.2,0,4.6-1.7,6.2c-1.7,1.4-4,1.8-6,1c-0.2,0-0.3-0.1-0.5-0.2v4.8h-2.8L59.5,24.6z M62.2,31.1L62.2,31.1c0,0.5,0,1,0,1.5
				c0,0.2,0.1,0.5,0.3,0.6c1,0.6,2.3,0.6,3.4,0.2c1.4-0.7,2.2-2.2,1.9-3.7c0-0.9-0.4-1.7-1.1-2.2C66,26.7,64.9,26.6,64,27
				c-1,0.4-1.7,1.4-1.8,2.5C62.2,30.1,62.2,30.6,62.2,31.1L62.2,31.1z"/>
			<path id="Path_36177" class="st0" d="M29.3,0h2.8v5.3c0.3-0.1,0.5-0.3,0.7-0.4c2.5-1.3,5.5-0.3,6.8,2.2c0.3,0.5,0.4,1.1,0.5,1.6
				c0.4,1.9-0.1,3.9-1.3,5.3c-1.3,1.4-3.2,2.2-5.2,2c-1.3,0-2.7-0.3-3.9-0.6c-0.2,0-0.4-0.2-0.3-0.4c0,0,0,0,0,0c0-4.9,0-9.9,0-14.8
				C29.3,0.2,29.3,0.1,29.3,0z M33.7,13.7c1,0,1.9-0.3,2.6-1c1.2-1.3,1.4-3.1,0.6-4.7c-0.4-0.7-1-1.1-1.7-1.2
				c-1.6-0.2-2.9,0.5-3,2.1c-0.1,1.4,0,2.8,0,4.1c0,0.2,0.1,0.3,0.3,0.4C32.9,13.6,33.3,13.6,33.7,13.7L33.7,13.7z"/>
			<path id="Path_36178" class="st0" d="M17.3,20c2.1,0,4.2-0.1,6.2,0c2.6,0.2,4.5,2.4,4.3,5c0,0.1,0,0.2,0,0.3
				c-0.2,2.6-2.4,4.7-5.1,4.5c-0.8,0-1.7,0-2.6,0v5.8h-2.8L17.3,20z M20.1,22.5v4.8c0.7,0,1.3,0,2,0c0.2,0,0.4,0,0.5-0.1
				c1.2-0.1,2-1.1,2-2.2c0.1-1.2-0.7-2.3-1.9-2.5C21.9,22.5,21,22.4,20.1,22.5L20.1,22.5z"/>
			<path id="Path_36179" class="st0" d="M19.4,11c0,0.8,0.4,1.5,1,2c1,0.7,2.2,0.9,3.4,0.5c0.8-0.2,1.6-0.6,2.2-1.2l1.6,1.8
				c-0.4,0.3-0.7,0.6-1.2,0.9c-2.1,1.3-4.8,1.5-7,0.3c-1.6-0.8-2.6-2.4-2.8-4.1C16.2,9.4,16.7,7.4,18,6c1.9-2,4.9-2.4,7.3-0.9
				c1.2,0.9,2,2.2,2.2,3.7c0.1,0.6,0.1,1.2,0.2,1.8c0,0.4-0.1,0.4-0.5,0.4c-2.4,0-4.8,0-7.2,0H19.4z M24.6,8.9
				c0-1.3-1.1-2.3-2.4-2.3c-1.4-0.2-2.7,0.9-2.9,2.3c0,0,0,0,0,0H24.6z"/>
			<path id="Path_36180" class="st0" d="M52.7,14.1c-0.6,0.7-1.3,1.2-2.1,1.5c-1.6,0.7-3.3,0.7-4.9,0.3c-1.6-0.4-2.9-1.7-3.5-3.3
				c-0.6-1.5-0.6-3.3,0-4.8c0.8-2.2,3-3.6,5.3-3.5c2.7-0.1,5,2,5.2,4.7c0.1,0.5,0.1,1.1,0.2,1.6c0,0.4-0.1,0.5-0.5,0.5
				c-2.4,0-4.8,0-7.2,0h-0.5c0,0.7,0.3,1.4,0.9,1.8c1,0.8,2.3,1,3.5,0.6c0.8-0.2,1.6-0.6,2.2-1.2L52.7,14.1z M49.9,9
				c0-1.3-1.1-2.4-2.5-2.3c-0.1,0-0.1,0-0.2,0c-1.5,0-2.8,1.2-2.6,2.3H49.9z"/>
			<path id="Path_36181" class="st0" d="M96.8,11c0,1.1,0.7,2,1.7,2.3c1.5,0.6,3.2,0.3,4.5-0.6c0.1-0.1,0.2-0.2,0.4-0.3l1.5,1.7
				c-0.2,0.2-0.5,0.5-0.7,0.7c-2.1,1.6-5.8,1.9-8,0.2c-1.1-0.9-1.9-2.1-2.1-3.5c-0.4-1.6-0.1-3.3,0.8-4.6c1-1.7,2.9-2.7,4.8-2.6
				c2.8,0,4.8,1.8,5.2,4.8c0,0.3,0.1,0.6,0.1,0.8c0,0.3,0,0.7,0,1.1L96.8,11z M102.1,9c-0.1-1.4-1.3-2.4-2.6-2.4
				c-0.2,0-0.3,0-0.5,0.1C97.8,6.9,96.6,8,96.9,9H102.1z"/>
			<path id="Path_36182" class="st0" d="M92.5,30.1c0,3.3-2.7,5.9-6,5.9c-3.3,0-5.9-2.7-5.9-6c0-0.1,0-0.2,0-0.3
				c0.2-3.3,3-5.8,6.3-5.6C90,24.4,92.5,27,92.5,30.1z M89.7,30.1c-0.1-0.4-0.1-0.7-0.2-1.1c-0.3-1.3-1.3-2.2-2.6-2.4
				c-1.3-0.2-2.6,0.5-3.1,1.7c-0.6,1.3-0.5,2.8,0.3,4c0.9,1.3,2.8,1.6,4.1,0.7c0.2-0.1,0.3-0.3,0.5-0.4C89.4,31.9,89.7,31,89.7,30.1
				L89.7,30.1z"/>
			<path id="Path_36183" class="st0" d="M71,16.1c-3.3,0-5.9-2.7-5.9-6c0-3.3,2.7-5.9,6-5.9c3.3,0,5.9,2.7,5.9,6c0,0,0,0,0,0.1
				c0,3.2-2.6,5.8-5.8,5.8C71.1,16.1,71.1,16.1,71,16.1z M74.2,10.2c0-0.3-0.1-0.6-0.1-0.8c-0.2-1.7-1.7-2.8-3.4-2.6
				c-0.5,0.1-1.1,0.3-1.5,0.6c-1,0.8-1.4,2.1-1.2,3.4c0.1,1.7,1.6,3,3.3,2.9c0.3,0,0.6-0.1,0.8-0.2C73.4,12.9,74.2,11.6,74.2,10.2z"
				/>
			<path id="Path_36184" class="st0" d="M94.3,35.7V24.6c0.8,0,1.7,0,2.5,0c0.1,0,0.2,0.2,0.2,0.3c0,0.3,0,0.6,0,0.9
				c0.2-0.2,0.3-0.3,0.4-0.4c1.6-1.5,5.3-1.5,6.6,0.9c0.4,0.8,0.6,1.6,0.6,2.5c0,2.2,0,4.4,0,6.6c0,0.1,0,0.2,0,0.2h-2.8v-0.5
				c0-2,0-4,0-6c0-1.4-0.5-2.1-1.6-2.4c-1.1-0.2-2.3,0.4-2.8,1.4c-0.2,0.5-0.3,1.1-0.3,1.6c0,1.8,0,3.6,0,5.4c0,0.4-0.1,0.5-0.5,0.5
				C95.9,35.7,95.1,35.7,94.3,35.7z"/>
			<path id="Path_36185" class="st0" d="M83.1,14.4l1.8-1.9c1,1,2.5,1.4,3.9,1.1c0.2,0,0.4-0.1,0.6-0.2c0.3-0.1,0.5-0.4,0.6-0.7
				c0.1-0.3-0.1-0.7-0.4-0.8c-0.5-0.3-1.1-0.5-1.6-0.7c-0.6-0.2-1.3-0.3-1.8-0.6c-0.6-0.2-1.1-0.6-1.6-1c-1.1-1.1-1.2-2.9-0.1-4
				c0.1-0.1,0.2-0.2,0.3-0.3c0.7-0.6,1.6-1,2.6-1.1c1.7-0.3,3.5,0,5.1,1c0.1,0,0.1,0.1,0.3,0.2l-1.4,1.9c-0.8-0.3-1.6-0.5-2.4-0.7
				c-0.5-0.1-1-0.1-1.5,0c-0.4,0-0.8,0.4-0.9,0.8c0,0.4,0.3,0.8,0.7,0.9c0.8,0.3,1.5,0.4,2.3,0.7c0.6,0.2,1.2,0.4,1.8,0.7
				c1.5,0.9,2,2.8,1.2,4.3c-0.2,0.4-0.6,0.8-1,1.1c-2.4,1.4-5.4,1.2-7.7-0.4C83.5,14.7,83.3,14.5,83.1,14.4z"/>
			<path id="Path_36186" class="st0" d="M73.3,26.9h-1.8v-2.3h1.8V21h2.9v3.5h2.9v2.3h-2.9c0,0.2,0,0.3,0,0.4c0,1.5,0,3,0,4.6
				c0,1.9,1.3,2.1,2.6,1.5c0.2-0.1,0.3-0.2,0.5-0.3l1.2,1.7c-0.5,0.5-1.1,0.8-1.8,1.1c-0.8,0.3-1.7,0.3-2.6,0.2
				c-1.5-0.2-2.7-1.4-2.7-3c-0.1-1.8-0.1-3.7-0.1-5.5C73.3,27.3,73.3,27.1,73.3,26.9z"/>
			<path id="Path_36187" class="st0" d="M59.1,12.5c1-2.5,1.9-5,2.8-7.4c0.1-0.3,0.2-0.4,0.6-0.4c0.9,0,1.7,0,2.6,0
				C65,4.8,65,4.9,64.9,5c-1.5,3.5-2.9,6.9-4.4,10.4c-0.1,0.2-0.3,0.4-0.5,0.3c-0.7,0-1.5,0-2.2,0c-0.2,0-0.3-0.1-0.4-0.2
				c-1.5-3.5-3-7.1-4.5-10.6c0-0.1,0-0.1,0-0.2c1,0,2,0,3,0c0.1,0,0.3,0.2,0.3,0.3c0.9,2.4,1.8,4.7,2.7,7.1
				C58.9,12.2,59,12.3,59.1,12.5z"/>
			<path id="Path_36188" class="st0" d="M32.2,35.7c-0.9,0-1.7,0-2.5,0c-0.1,0-0.2-0.2-0.3-0.3c0-0.1,0-0.1,0-0.2
				c0-4.9,0-9.9,0-14.8c0-0.1,0-0.3,0-0.4h2.8V35.7z"/>
			<path id="Path_36189" class="st0" d="M78.8,4.6h2.7v11h-2.7V4.6z"/>
			<path id="Path_36190" class="st0" d="M34.7,24.6h2.7v11.1h-2.7V24.6z"/>
			<path id="Path_36191" class="st0" d="M34.6,20h2.9v2.9h-2.9V20z"/>
			<path id="Path_36192" class="st0" d="M81.6,2.9h-2.9V0h2.9V2.9z"/>
		</g>
	</g>
</g>
</svg>
