<?xml version="1.0" encoding="utf-8"?>
<!-- Generator: Adobe Illustrator 23.0.4, SVG Export Plug-In . SVG Version: 6.00 Build 0)  -->
<svg version="1.1" id="Layer_1" xmlns="http://www.w3.org/2000/svg" xmlns:xlink="http://www.w3.org/1999/xlink" x="0px" y="0px"
	 width="23px" height="23px" viewBox="0 0 23 23" style="enable-background:new 0 0 23 23;" xml:space="preserve">
<style type="text/css">
	.st0{fill:#ED174F;}
</style>
<g id="signing-the-contract" transform="translate(-0.028)">
	<g id="Layer_1_155_" transform="translate(0.028)">
		<g id="Group_88">
			<path id="Path_36156" class="st0" d="M12.8,4.1H5c-0.6,0-1,0.5-1,1s0.5,1,1,1l0,0h7.8c0.6,0,1-0.5,1-1S13.4,4.1,12.8,4.1z"/>
			<path id="Path_36157" class="st0" d="M13.9,9.1c0-0.6-0.5-1-1-1c0,0,0,0,0,0H5c-0.6,0-1,0.5-1,1s0.5,1,1,1l0,0h7.8
				C13.4,10.1,13.9,9.6,13.9,9.1C13.9,9.1,13.9,9.1,13.9,9.1z"/>
			<path id="Path_36158" class="st0" d="M8.9,14c0.6,0,1-0.5,1-1s-0.5-1-1-1l0,0H5c-0.6,0-1,0.5-1,1s0.5,1,1,1l0,0H8.9z"/>
			<path id="Path_36159" class="st0" d="M16.8,17.6l-1.1,0.7v2.6H2.1V2.1h13.6v4.1l2.1-3.6V1c0-0.6-0.5-1-1-1c0,0,0,0,0,0H1
				C0.5,0,0,0.5,0,1V22c0,0.6,0.5,1,1,1l0,0h15.7c0.6,0,1-0.5,1-1v-5.8l-0.5,0.9C17.2,17.3,17,17.4,16.8,17.6z"/>
			<path id="Path_36160" class="st0" d="M23,4.8c-0.3-0.8-0.8-1.4-1.6-1.7c-0.7-0.5-1.5-0.7-2.3-0.5c-0.1,0-0.2,0.1-0.3,0.2
				l-6.5,11.3c0,0.1-0.1,0.1-0.1,0.2L12,18.5c0,0.3,0.2,0.5,0.5,0.6c0.1,0,0.2,0,0.3-0.1l3.4-2.3c0.1,0,0.1-0.1,0.2-0.2l6.5-11.3
				C23,5.1,23,5,23,4.8z M14.1,17.2c-0.2-0.1-0.4-0.3-0.6-0.4c-0.2-0.1-0.4-0.2-0.6-0.3l0.1-1.2c0.8,0.2,1.6,0.6,2.2,1.3L14.1,17.2z
				"/>
			<path id="Path_36161" class="st0" d="M7.3,18.9c0,0.2,0.3,0.3,0.4,0.3s0.3-0.1,0.5-0.1c0.8-0.4,1.9,0.1,2.7,0.1
				c0.2,0,0.4-0.2,0.4-0.4c0-0.2-0.2-0.4-0.4-0.4c-0.9-0.1-1.9-0.1-2.8-0.1c0-0.1,0-0.2-0.1-0.2c-0.1-0.3-0.4-0.4-0.7-0.4
				c0,0,0-0.1-0.1-0.1c-0.1-0.1-0.1-0.2-0.2-0.2C7.4,17,7.5,16.5,7.4,16c-0.1-0.1-0.2-0.2-0.3-0.2c-0.5,0-1,0.5-1.3,0.9
				c-0.8,0.8-1.6,1.7-2.3,2.7c-0.3,0.4,0.4,0.8,0.7,0.4c0.6-0.8,1.3-1.6,2-2.4c-0.2,0.3-0.4,0.6-0.6,0.8C5.3,18.6,6,19,6.2,18.6
				c0.1-0.1,0.2-0.2,0.3-0.3l-0.1,0.1l0,0c0,0,0,0.1,0,0.1c-0.2,0.4,0.5,0.6,0.7,0.3c0.1-0.1,0.1-0.2,0.2-0.3
				C7.3,18.7,7.3,18.8,7.3,18.9z"/>
		</g>
	</g>
</g>
</svg>
