<?xml version="1.0" encoding="utf-8"?>
<!-- Generator: Adobe Illustrator 23.0.4, SVG Export Plug-In . SVG Version: 6.00 Build 0)  -->
<svg version="1.1" id="Layer_1" xmlns="http://www.w3.org/2000/svg" xmlns:xlink="http://www.w3.org/1999/xlink" x="0px" y="0px"
	 width="22.8px" height="29.9px" viewBox="0 0 22.8 29.9" style="enable-background:new 0 0 22.8 29.9;" xml:space="preserve">
<style type="text/css">
	.st0{clip-path:url(#SVGID_2_);}
	.st1{clip-path:url(#SVGID_4_);}
	.st2{fill:#ED174F;}
	.st3{fill:#FFFFFF;}
</style>
<g>
	<defs>
		<rect id="SVGID_1_" width="22.8" height="29.9"/>
	</defs>
	<clipPath id="SVGID_2_">
		<use xlink:href="#SVGID_1_"  style="overflow:visible;"/>
	</clipPath>
	<g id="Component_4" class="st0">
		<g>
			<defs>
				<rect id="SVGID_3_" x="0.1" y="0.3" width="22.5" height="29.5"/>
			</defs>
			<clipPath id="SVGID_4_">
				<use xlink:href="#SVGID_3_"  style="overflow:visible;"/>
			</clipPath>
			<g id="popup" transform="translate(0.094 0.307)" class="st1">
				<g id="Component" transform="translate(0 0.001)">
					<path id="Union_1" class="st2" d="M2.9,18.8C-1.3,14.2-0.9,7.1,3.7,2.9s11.7-3.8,15.9,0.8c3.9,4.3,3.9,10.9-0.1,15.2l-8.3,10.6
						L2.9,18.8z"/>
					<g id="i" transform="translate(8.672 3.733)">
						<g id="Group_95" transform="translate(0 0)">
							<path id="Path_36172" class="st3" d="M0,2.6C0,1.2,1.2,0,2.6,0s2.6,1.2,2.6,2.6S4,5.2,2.6,5.2c-0.7,0-1.3-0.3-1.8-0.8
								C0.3,3.9,0,3.3,0,2.6L0,2.6z M1.3,12.3c0-0.8,0-1.6,0-2.3c0-0.7-0.1-1.4-0.1-2.1c0.2,0,0.4,0.1,0.7,0.1C2,8,2.3,8,2.6,8
								c0.5,0,1,0,1.5-0.1C4,8.6,4,9.3,4,10s0,1.5,0,2.3v0.8c0,0.8,0,1.6,0,2.3c0,0.7,0.1,1.4,0.1,2.1c-0.2,0-0.4,0-0.6,0H1.8
								c-0.2,0-0.4,0-0.7,0c0.1-0.7,0.1-1.4,0.1-2.1c0-0.7,0-1.5,0-2.3V12.3z"/>
						</g>
					</g>
				</g>
			</g>
		</g>
	</g>
</g>
</svg>
