<?xml version="1.0" encoding="utf-8"?>
<!-- Generator: Adobe Illustrator 23.0.4, SVG Export Plug-In . SVG Version: 6.00 Build 0)  -->
<svg version="1.1" id="Layer_1" xmlns="http://www.w3.org/2000/svg" xmlns:xlink="http://www.w3.org/1999/xlink" x="0px" y="0px"
	 width="12px" height="15px" viewBox="0 0 12 15" style="enable-background:new 0 0 12 15;" xml:space="preserve">
<style type="text/css">
	.st0{clip-path:url(#SVGID_2_);}
	.st1{fill:#ED174F;}
	.st2{fill:#FFFFFF;}
</style>
<title>popup</title>
<g>
	<defs>
		<rect id="SVGID_1_" x="0.4" y="0.1" width="11.3" height="14.8"/>
	</defs>
	<clipPath id="SVGID_2_">
		<use xlink:href="#SVGID_1_"  style="overflow:visible;"/>
	</clipPath>
	<g class="st0">
		<g id="Component">
			<path id="Union_1" class="st1" d="M1.8,9.5c-2.1-2.3-1.9-5.9,0.4-8s5.9-1.9,8,0.4c2,2.2,1.9,5.5-0.1,7.6l-4.2,5.3L1.8,9.5z"/>
			<g id="i">
				<g>
					<path class="st2" d="M4.7,3.3C4.7,2.6,5.3,2,6,2c0,0,0,0,0,0c0.7,0,1.3,0.6,1.3,1.3c0,0,0,0,0,0C7.3,4,6.7,4.6,6,4.6
						c0,0,0,0,0,0C5.3,4.6,4.7,4,4.7,3.3C4.7,3.3,4.7,3.3,4.7,3.3z M5.3,8.1c0-0.4,0-0.8,0-1.1c0-0.4,0-0.7-0.1-1.1
						c0.1,0,0.2,0,0.3,0C5.7,6,5.9,6,6,6c0.3,0,0.5,0,0.8,0c0,0.4-0.1,0.7-0.1,1.1c0,0.4,0,0.7,0,1.1v0.4c0,0.4,0,0.8,0,1.2
						c0,0.4,0,0.7,0.1,1c-0.1,0-0.2,0-0.3,0H5.6c-0.1,0-0.2,0-0.3,0c0-0.3,0.1-0.7,0.1-1c0-0.4,0-0.7,0-1.2L5.3,8.1z"/>
				</g>
			</g>
		</g>
	</g>
</g>
</svg>
