<?xml version="1.0" encoding="utf-8"?>
<!-- Generator: Adobe Illustrator 23.0.4, SVG Export Plug-In . SVG Version: 6.00 Build 0)  -->
<svg version="1.1" id="Layer_1" xmlns="http://www.w3.org/2000/svg" xmlns:xlink="http://www.w3.org/1999/xlink" x="0px" y="0px"
	 width="24.7px" height="24.7px" viewBox="0 0 24.7 24.7" style="enable-background:new 0 0 24.7 24.7;" xml:space="preserve">
<style type="text/css">
	.st0{fill:#ED174F;}
</style>
<g id="Group_88" transform="translate(-893.847 -754.348)">
	<g id="Group_89" transform="translate(891.347 751.848)">
		<path id="Path_36163" class="st0" d="M26.9,25.1l-5.5-5.5c3.6-4.6,2.9-11.2-1.7-14.9c-1.9-1.5-4.2-2.3-6.6-2.3
			C7.2,2.6,2.5,7.3,2.6,13.2C2.7,19,7.3,23.6,13.1,23.7c2.4,0,4.7-0.8,6.6-2.3l5.5,5.5c0.2,0.2,0.6,0.4,0.9,0.4
			c0.3,0,0.6-0.1,0.9-0.4C27.4,26.4,27.3,25.6,26.9,25.1C26.9,25.1,26.9,25.1,26.9,25.1z M5,13.1C5,8.6,8.6,5,13.1,5
			s8.1,3.6,8.1,8.1s-3.6,8.1-8.1,8.1C8.6,21.2,5,17.6,5,13.1z"/>
	</g>
	<g id="Group_90" transform="translate(891.347 751.848)">
		<path id="Path_36162" class="st0" d="M19.2,12.2c-1.6-1.7-3.8-2.7-6.1-2.8c-2.3,0-4.5,1-6.1,2.8c-0.5,0.5-0.5,1.3,0,1.7
			c1.6,1.7,3.8,2.7,6.1,2.8c2.3,0,4.5-1,6.1-2.8C19.6,13.5,19.6,12.7,19.2,12.2z M13.1,15.5c-1.4,0-2.4-1.1-2.4-2.4
			c0-1.4,1.1-2.4,2.4-2.4s2.4,1.1,2.4,2.4l0,0C15.5,14.4,14.5,15.5,13.1,15.5C13.1,15.5,13.1,15.5,13.1,15.5L13.1,15.5z"/>
		<circle id="Ellipse_14" class="st0" cx="13.1" cy="13.1" r="1.5"/>
	</g>
</g>
</svg>
